<?xml version="1.0" standalone="no"?>
<!DOCTYPE svg PUBLIC "-//W3C//DTD SVG 20010904//EN"
 "http://www.w3.org/TR/2001/REC-SVG-20010904/DTD/svg10.dtd">
<svg version="1.0" xmlns="http://www.w3.org/2000/svg"
 width="2000.000000pt" height="1247.000000pt" viewBox="0 0 2000.000000 1247.000000"
 preserveAspectRatio="xMidYMid meet">

<g transform="translate(0.000000,1247.000000) scale(0.100000,-0.100000)"
fill="#000000" stroke="none">
<path d="M10985 12460 c-967 -76 -1867 -355 -2685 -830 -257 -150 -566 -363
-780 -539 l-105 -86 278 -3 277 -2 98 68 c1892 1322 4394 1414 6377 234 302
-180 576 -378 865 -626 139 -119 461 -442 584 -586 773 -903 1245 -1963 1390
-3125 55 -438 59 -937 10 -1375 -214 -1930 -1360 -3627 -3070 -4547 -723 -389
-1494 -614 -2349 -685 -216 -17 -709 -15 -935 6 -1058 96 -2021 443 -2872
1038 l-98 68 -277 -2 -277 -3 80 -66 c389 -324 913 -647 1399 -863 623 -276
1223 -435 1940 -513 235 -26 971 -26 1205 0 828 91 1501 286 2200 638 585 294
1082 649 1554 1109 1019 994 1660 2285 1835 3695 35 276 45 450 45 770 0 319
-10 493 -45 770 -255 2066 -1524 3865 -3389 4804 -692 349 -1365 545 -2190
637 -168 19 -884 28 -1065 14z"/>
<path d="M4820 6235 l0 -3855 485 0 485 0 0 1474 0 1475 -45 1507 c-25 829
-44 1508 -42 1510 1 2 452 -1340 1002 -2981 l1000 -2985 371 0 372 0 239 712
c132 392 584 1738 1004 2990 l764 2277 3 -72 c1 -40 -18 -741 -43 -1558 l-45
-1485 0 -1432 0 -1432 485 0 485 0 0 3855 0 3855 -623 0 -623 0 -1004 -3140
c-553 -1727 -1008 -3136 -1011 -3132 -5 5 -1767 5503 -1984 6190 l-26 82 -624
0 -625 0 0 -3855z"/>
<path d="M13674 7111 l-499 -288 0 -588 0 -588 499 -288 500 -288 50 29 c28
16 254 146 501 289 l450 259 0 587 0 586 -445 258 c-245 141 -470 271 -501
288 l-55 32 -500 -288z m964 -98 l442 -255 0 -523 0 -523 -447 -258 c-247
-141 -451 -259 -454 -261 -4 -1 -209 114 -455 256 l-449 259 0 527 0 527 445
258 c245 142 452 256 460 253 8 -2 214 -119 458 -260z"/>
<path d="M13560 6449 c-52 -138 -96 -255 -98 -260 -2 -5 21 -9 50 -9 l54 0 23
70 22 70 88 0 87 0 23 -70 22 -70 55 0 c30 0 54 1 54 3 0 1 -42 117 -93 257
l-93 255 -49 3 -50 3 -95 -252z m184 -16 c7 -22 5 -23 -43 -23 -28 0 -51 2
-51 3 0 8 40 118 46 129 7 10 19 -19 48 -109z"/>
<path d="M14080 6620 l0 -50 410 0 410 0 0 50 0 50 -410 0 -410 0 0 -50z"/>
<path d="M14084 6366 c-3 -8 -4 -31 -2 -52 l3 -39 405 0 405 0 0 50 0 50 -403
3 c-338 2 -403 0 -408 -12z"/>
<path d="M13450 6030 l0 -50 725 0 725 0 0 50 0 50 -725 0 -725 0 0 -50z"/>
<path d="M13680 5740 l0 -50 495 0 495 0 0 50 0 50 -495 0 -495 0 0 -50z"/>
</g>
</svg>
